<?xml version="1.0" standalone="no"?><!DOCTYPE svg PUBLIC "-//W3C//DTD SVG 1.1//EN" "http://www.w3.org/Graphics/SVG/1.1/DTD/svg11.dtd"><svg t="1528977018017" class="icon" style="" viewBox="0 0 1024 1024" version="1.1" xmlns="http://www.w3.org/2000/svg" p-id="3403" xmlns:xlink="http://www.w3.org/1999/xlink" width="128" height="128"><defs><style type="text/css"></style></defs><path d="M437.038674 167.837937q-13.200737 44.316759-28.287293 86.276243t-33.001842 81.561694l647.779006 0 0 61.289134-678.895028 0q-19.801105 39.60221-41.016575 76.847145t-42.902394 73.075506l661.922652 0 0 62.232044q-129.178637 155.58011-291.359116 264.957643 47.145488 13.200737 95.233886 28.287293t99.005525 33.001842l0 88.633517q-307.388582-128.235727-648.721915-212.154696l0-61.289134q255.528545 52.802947 379.049724 96.176796 70.718232-52.802947 131.535912-112.206262t111.734807-125.406998l-617.605893 0 0-62.232044q4.714549-8.486188 10.843462-21.686924t15.558011-31.116022q6.600368-13.200737 18.38674-37.244936t29.701657-59.87477l-255.528545 0 0-61.289134 281.930018 0q9.429098-19.801105 21.21547-51.860037t27.815838-76.375691q4.714549-13.200737 8.014733-23.101289t5.186004-16.500921l-282.872928 0 0-62.232044 300.788214 0 26.401473-105.605893 105.605893 0q-4.714549 19.801105-17.915285 49.031308-8.486188 39.60221-16.972376 56.574586l497.856354 0 0 62.232044-520.486188 0z" p-id="3404" fill="#e0620d"></path></svg>